<svg 
          width="12" 
          height="15.482721328735352" fill="none" 
          xmlns="http://www.w3.org/2000/svg">
          <path d="M 0.75 0 L 11.25 0 C 11.448912374675274 3.330668971297461e-16 11.639678377658129 0.0790175957483775 11.780330657958984 0.21966987171742156 C 11.92098293825984 0.36032214768646564 12 0.5510876083523191 12 0.7499999769014859 L 12 15.107249271512527 C 12.000084229875938 15.174303623101771 11.98218772932887 15.240154976045208 11.948173999786377 15.297942167250891 C 11.914160270243883 15.355729358456575 11.865274328738451 15.40333857818052 11.806607723236084 15.435811997904676 C 11.747941117733717 15.468285417628831 11.681640291586518 15.484434565243633 11.614611625671387 15.482576847080868 C 11.547582959756255 15.480719128918102 11.48227734491229 15.460922097527313 11.425499439239502 15.425249101501477 L 6 12.022500144714934 L 0.5744998455047607 15.424499513511867 C 0.5177758131176233 15.46013861312232 0.45254058949649334 15.479932124987 0.3855764865875244 15.481821537045535 C 0.3186123836785555 15.48371094910407 0.25236461497843266 15.467626627999516 0.19372129440307617 15.435242654355317 C 0.1350779738277197 15.402858680711118 0.0861801104620099 15.355357386369086 0.05211210250854492 15.297676092124808 C 0.018044094555079937 15.23999479788053 0.00004985313717043027 15.174240004458659 0 15.107249271512527 L 0 0.7499999769014859 C 0 0.5510876083523191 0.0790177769958973 0.36032214768646564 0.21967005729675293 0.21966987171742156 C 0.36032233759760857 0.0790175957483775 0.5510876253247261 3.330668971297461e-16 0.75 0 Z M 10.5 1.4999999538029718 L 1.5 1.4999999538029718 L 1.5 13.073999002253947 L 6 10.253249329453379 L 10.5 13.073999002253947 L 10.5 1.4999999538029718 Z" fill="rgb(255,255,255)"/>
        </svg>