<svg 
          width="16" 
          height="16.003921508789062" fill="none" 
          xmlns="http://www.w3.org/2000/svg">
          <path d="M 3.3360000610351563 12.801960754394532 C 3.5012816429138183 12.333534383773804 3.807791328430176 11.927908086776736 4.213279724121094 11.640992736816408 C 4.618768119812012 11.35407738685608 5.10326943397522 11.2 5.6000000000000005 11.200000000000001 C 6.096730566024781 11.2 6.581231880187988 11.35407738685608 6.986720275878906 11.640992736816408 C 7.392208671569825 11.927908086776736 7.698718357086182 12.333534383773804 7.863999938964844 12.801960754394532 L 16 12.801960754394532 L 16 14.401960754394532 L 7.863999938964844 14.401960754394532 C 7.698718357086182 14.87038712501526 7.392208671569825 15.27601342201233 6.986720275878906 15.562928771972658 C 6.581231880187988 15.849844121932986 6.096730566024781 16.003921508789066 5.6000000000000005 16.003921508789062 C 5.10326943397522 16.003921508789066 4.618768119812012 15.849844121932986 4.213279724121094 15.562928771972658 C 3.807791328430176 15.27601342201233 3.5012816429138183 14.87038712501526 3.3360000610351563 14.401960754394532 L 0 14.401960754394532 L 0 12.801960754394532 L 3.3360000610351563 12.801960754394532 Z M 8.136000061035157 7.201960754394531 C 8.30128164291382 6.7335343837738035 8.607791328430176 6.327906942367554 9.013279724121094 6.040991592407227 C 9.418768119812013 5.7540762424469 9.90326943397522 5.599999618530274 10.4 5.599999618530274 C 10.89673056602478 5.599999618530274 11.381231880187988 5.7540762424469 11.786720275878906 6.040991592407227 C 12.192208671569825 6.327906942367554 12.498718357086181 6.7335343837738035 12.663999938964844 7.201960754394531 L 16 7.201960754394531 L 16 8.801960754394532 L 12.663999938964844 8.801960754394532 C 12.498718357086181 9.27038712501526 12.192208671569825 9.676014184951782 11.786720275878906 9.96292953491211 C 11.381231880187988 10.249844884872438 10.89673056602478 10.403921508789063 10.4 10.403921508789063 C 9.90326943397522 10.403921508789063 9.418768119812013 10.249844884872438 9.013279724121094 9.96292953491211 C 8.607791328430176 9.676014184951782 8.30128164291382 9.27038712501526 8.136000061035157 8.801960754394532 L 0 8.801960754394532 L 0 7.201960754394531 L 8.136000061035157 7.201960754394531 Z M 3.3360000610351563 1.6019603729248049 C 3.5012816429138183 1.1335340023040774 3.807791328430176 0.7279074192047119 4.213279724121094 0.4409920692443848 C 4.618768119812012 0.15407671928405764 5.10326943397522 0 5.6000000000000005 0 C 6.096730566024781 0 6.581231880187988 0.15407671928405764 6.986720275878906 0.4409920692443848 C 7.392208671569825 0.7279074192047119 7.698718357086182 1.1335340023040774 7.863999938964844 1.6019603729248049 L 16 1.6019603729248049 L 16 3.201960372924805 L 7.863999938964844 3.201960372924805 C 7.698718357086182 3.6703867435455324 7.392208671569825 4.07601342201233 6.986720275878906 4.362928771972657 C 6.581231880187988 4.649844121932984 6.096730566024781 4.803921127319336 5.6000000000000005 4.803921127319336 C 5.10326943397522 4.803921127319336 4.618768119812012 4.649844121932984 4.213279724121094 4.362928771972657 C 3.807791328430176 4.07601342201233 3.5012816429138183 3.6703867435455324 3.3360000610351563 3.201960372924805 L 0 3.201960372924805 L 0 1.6019603729248049 L 3.3360000610351563 1.6019603729248049 Z M 5.6000000000000005 3.201960372924805 C 5.812173199653626 3.201960372924805 6.015656173229218 3.117674744129181 6.165685272216797 2.9676456451416016 C 6.315714371204376 2.817616546154022 6.4 2.6141335725784303 6.4 2.4019603729248047 C 6.4 2.189787173271179 6.315714371204376 1.9863041996955872 6.165685272216797 1.8362751007080078 C 6.015656173229218 1.6862460017204284 5.812173199653626 1.6019603729248053 5.6000000000000005 1.6019603729248049 C 5.387826800346375 1.6019603729248053 5.184343826770783 1.6862460017204284 5.034314727783204 1.8362751007080078 C 4.884285628795625 1.9863041996955872 4.8 2.189787173271179 4.800000000000001 2.4019603729248047 C 4.8 2.6141335725784303 4.884285628795625 2.817616546154022 5.034314727783204 2.9676456451416016 C 5.184343826770783 3.117674744129181 5.387826800346375 3.201960372924805 5.6000000000000005 3.201960372924805 L 5.6000000000000005 3.201960372924805 Z M 10.4 8.801960754394532 C 10.612173199653625 8.801960754394532 10.815656173229218 8.717675125598907 10.965685272216797 8.567646026611328 C 11.115714371204376 8.41761692762375 11.200000000000001 8.214133954048156 11.200000000000001 8.001960754394531 C 11.200000000000001 7.789787554740906 11.115714371204376 7.586304581165313 10.965685272216797 7.436275482177734 C 10.815656173229218 7.286246383190155 10.612173199653625 7.201960754394531 10.4 7.201960754394531 C 10.187826800346375 7.201960754394531 9.984343826770782 7.286246383190155 9.834314727783203 7.436275482177734 C 9.684285628795624 7.586304581165313 9.600000000000001 7.789787554740906 9.600000000000001 8.001960754394531 C 9.600000000000001 8.214133954048156 9.684285628795624 8.41761692762375 9.834314727783203 8.567646026611328 C 9.984343826770782 8.717675125598907 10.187826800346375 8.801960754394532 10.4 8.801960754394532 L 10.4 8.801960754394532 Z M 5.6000000000000005 14.401960754394532 C 5.812173199653626 14.401960754394532 6.015656173229218 14.31767588853836 6.165685272216797 14.167646789550782 C 6.315714371204376 14.017617690563203 6.4 13.814133954048158 6.4 13.601960754394533 C 6.4 13.389787554740908 6.315714371204376 13.186303818225861 6.165685272216797 13.036274719238282 C 6.015656173229218 12.886245620250703 5.812173199653626 12.801960754394532 5.6000000000000005 12.801960754394532 C 5.387826800346375 12.801960754394532 5.184343826770783 12.886245620250703 5.034314727783204 13.036274719238282 C 4.884285628795625 13.186303818225861 4.8 13.389787554740908 4.800000000000001 13.601960754394533 C 4.8 13.814133954048158 4.884285628795625 14.017617690563203 5.034314727783204 14.167646789550782 C 5.184343826770783 14.31767588853836 5.387826800346375 14.401960754394532 5.6000000000000005 14.401960754394532 L 5.6000000000000005 14.401960754394532 Z" fill="rgb(255,255,255)"/>
        </svg>