<svg 
          width="16" 
          height="16" fill="none" 
          xmlns="http://www.w3.org/2000/svg">
          <path d="M 8 16 C 3.5816001892089844 16 0 12.418399810791016 0 8 C 0 3.5816001892089844 3.5816001892089844 0 8 0 C 12.418399810791016 0 16 3.5816001892089844 16 8 C 16 12.418399810791016 12.418399810791016 16 8 16 Z M 8 14.4 C 9.697385597229005 14.399999999999997 11.325250911712647 13.725716495513918 12.525483703613283 12.525483703613283 C 13.725716495513918 11.325250911712647 14.399999999999997 9.697385597229005 14.4 8 C 14.399999999999997 6.302614402770996 13.725716495513918 4.674749469757081 12.525483703613283 3.4745166778564456 C 11.325250911712647 2.2742838859558105 9.697385597229005 1.6000000000000008 8 1.6 C 6.302614402770996 1.6000000000000014 4.674749469757081 2.2742838859558105 3.4745166778564456 3.4745166778564456 C 2.2742838859558105 4.674749469757081 1.6000000000000023 6.302614402770996 1.6 8 C 1.6000000000000014 9.697385597229005 2.2742838859558105 11.325250911712647 3.4745166778564456 12.525483703613283 C 4.674749469757081 13.725716495513918 6.302614402770996 14.399999999999997 8 14.4 L 8 14.4 Z M 7.2 10.4 L 8.8 10.4 L 8.8 12 L 7.2 12 L 7.2 10.4 Z M 8.8 9.083999633789062 L 8.8 9.600000000000001 L 7.2 9.600000000000001 L 7.2 8.4 C 7.2 8.187826800346375 7.284285628795624 7.9843438267707825 7.434314727783203 7.8343147277832035 C 7.584343826770782 7.6842856287956245 7.787826800346375 7.6000000000000005 8 7.6000000000000005 C 8.227262568473815 7.599985734389339 8.449849188327791 7.535436582565308 8.64186019897461 7.4138633728027346 C 8.83387120962143 7.292290163040161 8.987411618232729 7.11869170665741 9.084616851806642 6.913266754150391 C 9.181822085380555 6.707841801643372 9.218695187568665 6.479036450386047 9.190945434570313 6.253474426269531 C 9.163195681571962 6.0279124021530155 9.07196422815323 5.814867544174194 8.927866363525391 5.639128875732422 C 8.783768498897553 5.46339020729065 8.59272930622101 5.332183885574341 8.376976776123048 5.260775756835938 C 8.161224246025085 5.189367628097535 7.929629302024842 5.1806939303874975 7.709140014648438 5.235764312744141 C 7.4886507272720335 5.290834695100785 7.288332378864289 5.407384634017944 7.131493377685548 5.5718528747558596 C 6.974654376506806 5.736321115493775 6.867743688821792 5.9419456958770756 6.823200225830078 6.164800262451172 L 5.253600311279297 5.850399780273438 C 5.350905591249466 5.364067745208741 5.575607657432557 4.912296533584596 5.904736328125001 4.541268920898438 C 6.233864998817444 4.1702413082122805 6.655614614486694 3.8932654261589055 7.126871490478516 3.7386558532714846 C 7.598128366470338 3.584046280384064 8.10198941230774 3.557348728179932 8.586946105957031 3.661291885375977 C 9.071902799606322 3.7652350425720216 9.52056064605713 3.996090745925904 9.887055206298829 4.330259704589844 C 10.253549766540528 4.664428663253784 10.524735510349274 5.089924716949463 10.672889709472656 5.563250732421875 C 10.821043908596039 6.036576747894287 10.84085260629654 6.5407554626464846 10.730290985107423 7.0242462158203125 C 10.619729363918307 7.5077369689941404 10.38276333808899 7.953197884559632 10.043616485595704 8.315090942382813 C 9.704469633102418 8.676984000205994 9.275306701660156 8.942328488826751 8.8 9.083999633789062 L 8.8 9.083999633789062 Z" fill="rgb(255,255,255)"/>
        </svg>