<svg 
          width="16" 
          height="16.651283264160156" fill="none" 
          xmlns="http://www.w3.org/2000/svg">
          <path d="M 16 15.76239442052426 C 16 15.998142408137559 15.906350149048698 16.22423543719952 15.73965115017361 16.39093442758803 C 15.572952151298523 16.557633417976536 15.34685911072625 16.651283264160156 15.11111111111111 16.651283264160156 L 0.8888891008165147 16.651283264160156 C 0.6531411012013753 16.651283264160156 0.4270486964119805 16.557633417976536 0.26034969753689235 16.39093442758803 C 0.0936506986618042 16.22423543719952 2.1396481860354771e-7 15.998142408137559 2.1396481820880175e-7 15.76239442052426 L 2.1396481820880175e-7 6.4201716227500265 C -0.0000937632479841947 6.284716524606186 0.0307708183924357 6.151031353185152 0.0902364518907335 6.029327085627374 C 0.1497020853890313 5.907622818069596 0.23619567023383242 5.801118886512165 0.34311125013563365 5.717949470186087 L 7.454221937391493 0.18728340043183608 C 7.610260115729438 0.06590152775849686 7.802309658792284 0 8 0 C 8.197690341207716 0 8.389739884270563 0.06590152775849686 8.545778062608507 0.18728340043183608 L 15.656889173719618 5.717949470186087 C 15.76380475362142 5.801118886512165 15.850298974249096 5.907622818069596 15.909764607747395 6.029327085627374 C 15.969230241245693 6.151031353185152 16.000093977212803 6.284716524606186 16 6.4201716227500265 L 16 15.76239442052426 L 16 15.76239442052426 Z M 14.222222222222221 14.873505576888364 L 14.222222222222221 6.853949303845823 L 8 2.014838857860975 L 1.7777779897054036 6.853949303845823 L 1.7777779897054036 14.873505576888364 L 14.222222222222221 14.873505576888364 Z M 3.555555979410807 11.317949354634322 L 12.444444444444443 11.317949354634322 L 12.444444444444443 13.095727041906112 L 3.555555979410807 13.095727041906112 L 3.555555979410807 11.317949354634322 Z" fill="rgb(255,255,255)"/>
        </svg>