<svg 
          width="10" 
          height="12" fill="none" 
          xmlns="http://www.w3.org/2000/svg">
          <path d="M 5 12.000000000000002 L 1.4644461623525993 8.485259736286691 C 0.7651900650914235 7.790111633138861 0.2889923933776672 6.904441606508043 0.09607133005350747 5.940248544355451 C -0.09684973327065223 4.976055482202859 0.0021704691058395675 3.9766445081146444 0.3806102649433285 3.0683964423537198 C 0.7590500607808175 2.160148376592795 1.3999124394893905 1.3838563798572803 2.2221565099688596 0.8376866239940364 C 3.044400580448329 0.2915168681307925 4.011096446314305 4.905273877905964e-16 5 0 C 5.988903553685695 -4.905273877905964e-16 6.9555992870969625 0.2915168681307925 7.777843357576431 0.8376866239940364 C 8.6000874280559 1.3838563798572803 9.240950005446539 2.160148376592795 9.619389801284028 3.0683964423537198 C 9.997829597121516 3.9766445081146444 10.096850072685848 4.976055482202859 9.903929009361688 5.940248544355451 C 9.711007946037528 6.904441606508043 9.234810332272707 7.790111633138861 8.535554235011531 8.485259736286691 L 5 12.000000000000002 Z M 7.749999258253625 7.704328831308509 C 8.293830217221487 7.163644258546736 8.664170904246054 6.474789493463173 8.814192320848118 5.724871000252904 C 8.964213737450182 4.974952507042635 8.887177879417047 4.1976506951690835 8.592825532351375 3.491255774275439 C 8.298473185285703 2.7848608533817947 7.800024157090015 2.181098617158527 7.160508511645631 1.7563152838881049 C 6.520992866201246 1.3315319506176828 5.769132314625924 1.1048053102573294 5 1.104805310257329 C 4.230867685374076 1.104805310257329 3.4790071337987545 1.3315319506176828 2.83949148835437 1.7563152838881049 C 2.1999758429099856 2.181098617158527 1.7015272120784286 2.7848608533817947 1.407174865012756 3.491255774275439 C 1.1128225179470834 4.1976506951690835 1.035786395004529 4.974952507042635 1.185807811606593 5.724871000252904 C 1.3358292282086572 6.474789493463173 1.7061703125973542 7.163644258546736 2.2500012715652162 7.704328831308509 L 5 10.438138190043636 L 7.749999258253625 7.704328831308509 L 7.749999258253625 7.704328831308509 Z M 5 6.075088953007759 C 4.705315125384807 6.075088953007759 4.422700004095501 5.958714786499175 4.21432634382191 5.75156783160074 C 4.00595268354832 5.544420876702305 3.888889359838969 5.263469523702763 3.888889359838969 4.970519472573383 C 3.888889359838969 4.6775694214440025 4.00595268354832 4.39661806844446 4.21432634382191 4.189471113546025 C 4.422700004095501 3.98232415864759 4.705315125384807 3.8659499921390053 5 3.865949992139006 C 5.294684874615193 3.8659499921390053 5.5772999959045 3.98232415864759 5.785673656178091 4.189471113546025 C 5.994047316451681 4.39661806844446 6.111110640161032 4.6775694214440025 6.111110640161032 4.970519472573383 C 6.111110640161032 5.263469523702763 5.994047316451681 5.544420876702305 5.785673656178091 5.75156783160074 C 5.5772999959045 5.958714786499175 5.294684874615193 6.075088953007759 5 6.075088953007759 Z" fill="rgb(255,255,255)"/>
        </svg>