<svg 
          width="16" 
          height="15.999995231628418" fill="none" 
          xmlns="http://www.w3.org/2000/svg">
          <path d="M 3.412000824355843 1.4455995066166112 L 4.329600812072521 2.7567992577552562 C 3.2145461422311374 3.5374138780191746 2.377407442834632 4.653202196000939 1.9397926502821015 5.942077391720068 C 1.502177857729571 7.230952587439197 1.4868805922849866 8.625782207910785 1.8961231528883495 9.923944948927193 C 2.3053657134917125 11.222107689943602 3.117832245493246 12.355987776520413 4.215498671865843 13.160869490840014 C 5.31316509823844 13.965751205159615 6.638858517019696 14.399711895073597 8 14.399711895073597 C 9.361141482980305 14.399711895073597 10.686834138822325 13.965751205159615 11.784500565194922 13.160869490840014 C 12.882166991567518 12.355987776520413 13.69463371430386 11.222107689943602 14.103876274907224 9.923944948927193 C 14.513118835510587 8.625782207910785 14.49782042565715 7.230952587439197 14.06020563310462 5.942077391720068 C 13.622590840552089 4.653202196000939 12.785453094829627 3.5374138780191746 11.670398424988242 2.7567992577552562 L 12.587999175644157 1.4455995066166112 C 13.642358023922531 2.1827403239187677 14.503139828737307 3.1635644067629127 15.09717280468765 4.304692702086572 C 15.691205780637993 5.445820997410232 16.000923364065905 6.713510896708698 15.99999694824306 7.999997615814209 C 15.999996948243057 12.418396109819469 12.41839854667705 15.999995231628418 8 15.999995231628418 C 3.581601453322949 15.999995231628418 0.0000020721850416038698 12.418396109819469 0.0000020721850416038698 7.999997615814209 C -0.0009243436378043348 6.713510896708698 0.30879326568796184 5.445820997410232 0.9028262416383052 4.304692702086572 C 1.4968592175886486 3.1635644067629127 2.357641976077468 2.1827403239187677 3.412000824355843 1.4455995066166112 L 3.412000824355843 1.4455995066166112 Z M 7.20000022888177 7.999997615814209 L 7.20000022888177 0 L 8.799999771118229 0 L 8.799999771118229 7.999997615814209 L 7.20000022888177 7.999997615814209 Z" fill="rgb(255,255,255)"/>
        </svg>