<svg 
          width="16" 
          height="16" fill="none" 
          xmlns="http://www.w3.org/2000/svg">
          <path d="M 4.232806644741071 15.059190906987626 L 0.000009029191932607887 15.999990844731801 L 0.9408086161754897 11.767192973789422 C 0.3212343762010329 10.608300147075571 -0.001969478617785347 9.314111434491291 0.000009029191932607887 7.999995422365901 C 0.000009029191931897345 3.5815981398020895 3.581607295070288 0 8.0000045776341 0 C 12.41840186019791 0 16 3.5815981398020895 16 7.999995422365901 C 16 12.418392704929712 12.41840186019791 15.999990844731801 8.0000045776341 15.999990844731801 C 6.6858885655087095 16.00196935254152 5.391699471454923 15.678765146962082 4.232806644741071 15.059190906987626 L 4.232806644741071 15.059190906987626 Z M 4.464806481472121 13.368792704319361 L 4.987206466365929 13.648792849277774 C 5.9140460506175705 14.144103921449325 6.9491193108829625 14.402184482382475 8.0000045776341 14.399991760258622 C 9.265804234044513 14.399991760258628 10.503177354901874 14.024638018815223 11.555651346787636 13.321397406732137 C 12.608125338673398 12.618156794649051 13.428430216733808 11.618614224273173 13.912830784131556 10.449167757510516 C 14.397231351529303 9.279721290747858 14.523972616783551 7.992895988714606 14.277027353080356 6.751418255948111 C 14.030082089377162 5.509940523181616 13.420541236567745 4.36957023454462 12.525485691746317 3.4745146897231924 C 11.630430146924889 2.579459144901765 10.490059476818384 1.9699186735618555 9.24858174405189 1.72297340985866 C 8.007104011285396 1.4760281461554645 6.720278709252142 1.602769411409715 5.550832242489485 2.0871699788074616 C 4.381385775726828 2.571570546205208 3.381842633146687 3.391873898387586 2.678602021063602 4.444347890273348 C 1.9753614089805174 5.49682188215911 1.6000080490066266 6.734195765955487 1.6000080490066249 7.999995422365901 C 1.6000080490066253 9.06719480484306 1.8600079383804675 10.094394057620589 2.3520076644853605 11.012793533634072 L 2.631207486415394 11.535193899997388 L 2.107207618403844 13.892791427922386 L 4.464806481472121 13.368792704319361 L 4.464806481472121 13.368792704319361 Z" fill="rgb(255,255,255)"/>
        </svg>