<svg 
          width="17" 
          height="21.5" fill="none" 
          xmlns="http://www.w3.org/2000/svg">
          <path d="M 14.5 8 C 14.5 6.408701062202454 13.867859721183777 4.8825777769088745 12.74264144897461 3.757359504699707 C 11.617423176765442 2.6321412324905396 10.091298937797546 2.000000000000001 8.5 2 C 6.908701062202454 2.0000000000000018 5.3825777769088745 2.6321412324905396 4.257359504699707 3.757359504699707 C 3.1321412324905396 4.8825777769088745 2.500000238418581 6.408701062202454 2.500000238418579 8 L 2.500000238418579 16 L 14.5 16 L 14.5 8 Z M 16.5 16.66699981689453 L 16.899999618530273 17.200000762939453 C 16.95571320131421 17.274285539984703 16.989641131833196 17.362616434693336 16.99798011779785 17.455097198486328 C 17.006319103762507 17.54757796227932 16.9887405782938 17.640553206205368 16.947214126586914 17.72360610961914 C 16.905687674880028 17.806659013032913 16.841853074729443 17.876508120447397 16.76286506652832 17.925325393676758 C 16.683877058327198 17.97414266690612 16.592855967581272 18 16.5 18 L 0.5000002384185791 18 C 0.407144270837307 17.999999999999996 0.3161226883530617 17.97414266690612 0.2371346801519394 17.925325393676758 C 0.1581466719508171 17.876508120447397 0.09431302919983864 17.806659013032913 0.05278657749295235 17.72360610961914 C 0.011260125786066055 17.640553206205368 -0.006318401312455535 17.54757796227932 0.0020205846522003412 17.455097198486328 C 0.010359570616856217 17.362616434693336 0.04428654536604881 17.274285539984703 0.10000012814998627 17.200000762939453 L 0.5000002384185791 16.66699981689453 L 0.5000002384185791 8 C 0.5000002384185791 5.878268003463745 1.3428550958633423 3.84343683719635 2.8431460857391357 2.3431458473205566 C 4.343437075614929 0.8428548574447632 6.378268003463745 2.220446049250313e-15 8.5 0 C 10.621731996536255 1.3322676295501878e-15 12.656563639640808 0.8428548574447632 14.156854629516602 2.3431458473205566 C 15.657145619392395 3.84343683719635 16.499999999999996 5.878268003463745 16.5 8 L 16.5 16.66699981689453 Z M 6 19 L 11 19 C 11.000000000000002 19.66304123401642 10.736607909202576 20.29892599582672 10.267766952514648 20.76776695251465 C 9.798925995826721 21.236607909202576 9.163041234016418 21.5 8.5 21.5 C 7.8369587659835815 21.5 7.201074004173279 21.236607909202576 6.732233047485352 20.76776695251465 C 6.263392090797424 20.29892599582672 6 19.66304123401642 6 19 L 6 19 Z" fill="rgb(0,0,0)"/>
        </svg>