<svg 
          width="12" 
          height="11.999333381652832" fill="none" 
          xmlns="http://www.w3.org/2000/svg">
          <path d="M 11.99933409690857 8.946169137954712 L 11.99933409690857 11.303370952606201 C 11.999410552460176 11.472146451473236 11.93546660989523 11.634669441729784 11.820405006408691 11.75814414024353 C 11.705343402922153 11.881618838757277 11.547729816287756 11.956853955052793 11.379368305206299 11.968668222427368 C 11.08805114775896 11.988667110912502 10.850064296275377 11.999333381652832 10.666074514389038 11.999333381652832 C 4.775068402290344 11.999333381652832 0 7.224265158176422 0 1.333259403705597 C 0 1.1492696329951286 0.009999447036534548 0.9112828820943832 0.030664966441690922 0.6199657469987869 C 0.04247923521324992 0.4516042470932007 0.11771426349878311 0.2939908504486084 0.24118897318840027 0.17892925813794136 C 0.3646636828780174 0.06386766582727432 0.5271859355270863 -0.00007628450266139453 0.6959614455699921 1.7104348870589092e-7 L 3.0531638860702515 1.7104348870589092e-7 C 3.135852014645934 -0.00008355165636686479 3.2156193796545267 0.030570996925234795 3.276970624923706 0.08600886538624763 C 3.3383218701928854 0.14144673384726048 3.3768767702858895 0.21770984306931496 3.3851455450057983 0.29998353123664856 C 3.40047802682966 0.4533083438873291 3.4144772412255406 0.5753014236688614 3.4278098344802856 0.6679629385471344 C 3.5602919720113277 1.5925270020961761 3.8317895382642746 2.4917499125003815 4.233098745346069 3.3351484537124634 C 4.296428561210632 3.468474380671978 4.255097050219774 3.627798540517688 4.135103702545166 3.7131271362304688 L 2.696516990661621 4.741070508956909 C 3.5761037170886993 6.790590941905975 5.209409773349762 8.42389565706253 7.258930206298828 9.303482294082642 L 8.285539627075195 7.867562770843506 C 8.327501638792455 7.808898791670799 8.388722464442253 7.766822639387101 8.45852780342102 7.748670816421509 C 8.528333142399788 7.730518993455917 8.60229541361332 7.737442527897656 8.667519092559814 7.768234491348267 C 9.510820001363754 8.168789237737656 10.409809201955795 8.439609624445438 11.334038257598877 8.571523189544678 C 11.426699778065085 8.584855781402439 11.548692505806684 8.599521628115326 11.700684070587158 8.614187479019165 C 11.78283766284585 8.622611017199233 11.858938286080956 8.661232620477676 11.914238691329956 8.722568035125732 C 11.969539096578956 8.783903449773788 12.0001003833313 8.863584889099002 12 8.946169137954712 L 11.99933409690857 8.946169137954712 Z" fill="rgb(255,255,255)"/>
        </svg>