<svg 
          width="12" 
          height="15.75" fill="none" 
          xmlns="http://www.w3.org/2000/svg">
          <path d="M 12 15.75 L 10.5 15.75 L 10.5 14.25 C 10.499999999999996 13.65326289832592 10.262947395443916 13.08096630871296 9.840990543365479 12.659009456634521 C 9.41903369128704 12.237052604556084 8.84673710167408 12.000000000000004 8.25 12 L 3.75 12 C 3.15326289832592 12.000000000000004 2.580966666340828 12.237052604556084 2.15900981426239 12.659009456634521 C 1.7370529621839523 13.08096630871296 1.5 13.65326289832592 1.5 14.25 L 1.5 15.75 L 0 15.75 L 0 14.25 C 0 13.255438148975372 0.3950881361961365 12.301611006259918 1.0983495712280273 11.598349571228027 C 1.8016110062599182 10.895088136196136 2.7554381489753723 10.5 3.75 10.5 L 8.25 10.5 C 9.244561851024628 10.500000000000002 10.198388993740082 10.895088136196136 10.901650428771973 11.598349571228027 C 11.604911863803864 12.301611006259918 12 13.255438148975372 12 14.25 L 12 15.75 Z M 6 9 C 5.409051552414894 9.000000008805817 4.8238897025585175 8.883603751659393 4.277924537658691 8.65745759010315 C 3.7319593727588654 8.431311428546906 3.235882893204689 8.099843993782997 2.8180192708969116 7.68198037147522 C 2.400155648589134 7.264116749167442 2.0686882361769676 6.768040627241135 1.842542052268982 6.222075462341309 C 1.6163958683609962 5.6761102974414825 1.5000000000000013 5.090948447585106 1.5 4.5 C 1.5000000000000007 3.909051552414894 1.6163958683609962 3.3238897025585175 1.842542052268982 2.7779245376586914 C 2.0686882361769676 2.2319593727588654 2.400155648589134 1.7358830720186234 2.8180192708969116 1.318019449710846 C 3.235882893204689 0.9001558274030685 3.7319593727588654 0.5686882138252258 4.277924537658691 0.34254205226898193 C 4.8238897025585175 0.11639589071273804 5.409051552414894 -8.805817575119335e-9 6 4.996003610813204e-16 C 7.19347420334816 1.7784151984390206e-8 8.338067382574081 0.47410574555397034 9.181981086730957 1.318019449710846 C 10.025894790887833 2.1619331538677216 10.5 3.30652579665184 10.5 4.5 C 10.5 5.69347420334816 10.025894790887833 6.838066667318344 9.181981086730957 7.68198037147522 C 8.338067382574081 8.525894075632095 7.19347420334816 8.999999982215849 6 9 L 6 9 Z M 6 7.5 C 6.795649498701096 7.499999999999998 7.558711364865303 7.183929607272148 8.121320486068726 6.621320486068726 C 8.683929607272148 6.058711364865303 8.999999999999998 5.295649498701096 9 4.5 C 8.999999999999998 3.7043505012989044 8.683929607272148 2.941288635134697 8.121320486068726 2.3786795139312744 C 7.558711364865303 1.8160703927278519 6.795649498701096 1.5000000000000004 6 1.5 C 5.204350501298904 1.5000000000000007 4.441288635134697 1.8160703927278519 3.8786795139312744 2.3786795139312744 C 3.316070392727852 2.941288635134697 3.0000000000000027 3.7043505012989044 3 4.5 C 3.0000000000000013 5.295649498701096 3.316070392727852 6.058711364865303 3.8786795139312744 6.621320486068726 C 4.441288635134697 7.183929607272148 5.204350501298904 7.499999999999998 6 7.5 L 6 7.5 Z" fill="rgb(255,255,255)"/>
        </svg>