<svg 
          width="16" 
          height="16.603900909423828" fill="none" 
          xmlns="http://www.w3.org/2000/svg">
          <path d="M 0.8117865456475152 12.452188597766286 C 0.46090107493930393 11.845410914277531 0.1881426042980618 11.196702607193709 0 10.52149735924455 C 0.40946862432691783 10.313237546235575 0.7533466021219888 9.995767477676898 0.9935914145575628 9.604207601941763 C 1.2338362269931369 9.212647726206628 1.3610832860124191 8.762261720328047 1.3612551159328883 8.302874459184286 C 1.3614269458533574 7.843487198040526 1.234516938527425 7.3930056922731 0.9945651160346136 7.00126623436141 C 0.7546132935418022 6.609526776449719 0.4109728979981608 6.291799123100703 0.0016601729310221141 6.083233034928099 C 0.376871517755919 4.726509002966377 1.0912880367702908 3.487634323988636 2.077609168158637 2.483316484901527 C 2.4628288216061063 2.733762016146244 2.90983067618476 2.8727425590027162 3.3691452874077688 2.8848771725747646 C 3.8284598986307774 2.897011786146813 4.282176441616482 2.7818272823929617 4.680082533094618 2.5520711066789006 C 5.077988624572754 2.3223149309648394 5.404568049642775 1.9869465010611007 5.623678419325087 1.5830804381238666 C 5.842788789007399 1.1792143751866324 5.945885688066482 0.7225997102609745 5.921560075547959 0.26376923598648916 C 7.2845893436008025 -0.08848460741218805 8.71486218770345 -0.08791319753635468 10.077609592013888 0.2654294240680134 C 10.053499120804997 0.7242504675629069 10.156798508432177 1.1807969977551087 10.376077440049913 1.5845479310066513 C 10.59535637166765 1.9882988642581938 10.922064065933228 2.323511024024819 11.320048014322916 2.5530906905129793 C 11.718031962712605 2.7826703570011397 12.171773804558647 2.897665754252664 12.631062825520832 2.8853512546859337 C 13.090351846483017 2.8730367551192035 13.537280427085028 2.733892563567111 13.92239040798611 2.483316484901527 C 14.40298800998264 2.9730445773048375 14.829631487528482 3.530006604767287 15.188212076822916 4.151712311657542 C 15.547622707155016 4.7734180185477975 15.816559460428026 5.421685622122377 16 6.0824035501792775 C 15.590531375673082 6.290663363188253 15.246653503841824 6.6081334317469285 15.00640869140625 6.999693307482064 C 14.766163878970676 7.3912531832172 14.638916608023766 7.8416391890957815 14.638744778103298 8.301026450239542 C 14.63857294818283 8.760413711383302 14.765482001834444 9.210894793295465 15.005433824327255 9.602634251207155 C 15.245385646820067 9.994373709118845 15.589025762346054 10.312101362467864 15.998338487413193 10.520667450640467 C 15.623127142588295 11.877391482602189 14.908711539374456 13.116266797362822 13.92239040798611 14.120584636449932 C 13.537170754538641 13.870139105205215 13.090168052249483 13.731158774276373 12.630853441026474 13.719024160704326 C 12.171538829803465 13.706889547132278 11.717822710673014 13.822073203175602 11.319916619194878 14.051829378889664 C 10.922010527716742 14.281585554603726 10.595431102646721 14.61695409047128 10.376320732964409 15.020820153408515 C 10.157210363282097 15.42468621634575 10.054113040367762 15.88130021899756 10.078438652886284 16.340130693272044 C 8.71540938483344 16.692384536670723 7.2851373884412975 16.691813497668242 5.922389984130859 16.338470876063873 C 5.946500455339749 15.87964983256898 5.843201067712571 15.423104547451613 5.623922136094834 15.019353614200071 C 5.404643204477098 14.615602680948529 5.077935086356269 14.280389249616114 4.6799511379665795 14.050809583127954 C 4.28196718957689 13.821229916639794 3.8282253477308483 13.70623409553301 3.368936326768663 13.718548595099739 C 2.9096473058064776 13.730863094666468 2.4627191490597196 13.870008557784347 2.077609168158637 14.120584636449932 C 1.5870434443155923 13.620020419349837 1.1617304219139948 13.05944348929877 0.8117865456475152 12.452188597766286 Z M 5.509856330023871 12.614876963193177 C 6.394377496507433 13.125047859819105 7.059427473280165 13.943797149569377 7.377464294433594 14.914108657086352 C 7.791658083597819 14.953120894809844 8.207510312398275 14.953951651124454 8.6217041015625 14.914939413400962 C 8.939946519003975 13.944491954308523 9.605308850606283 13.125723750017158 10.490142822265625 12.615708567218311 C 11.374323897891575 12.104138312443053 12.416287104288736 11.93712741806671 13.416060553656683 12.146730521121064 C 13.656774361928303 11.808071093522162 13.864287376403807 11.447000265933703 14.036937289767794 11.069328590677202 C 13.35582473542955 10.3085410312443 12.979552297283792 9.323082949956069 12.98028564453125 8.301950454711914 C 12.98028564453125 7.25609045537787 13.370409064822725 6.27912505602166 14.036937289767794 5.534572318746626 C 13.863066315650938 5.157023561516267 13.65466785430908 4.7963547076624335 13.414401584201388 4.457169964447502 C 12.415259255303276 4.666598346415345 11.37397125032213 4.499897859791437 10.490142822265625 3.9890230985201263 C 9.605621655782064 3.478852201894198 8.940572526719835 2.660102488288663 8.622535705566406 1.6897909807716887 C 8.208341916402182 1.650778743048197 7.792487144470215 1.6499487284802965 7.378293355305989 1.688960966203788 C 7.060050937864515 2.6594084252962276 6.394690301683214 3.4781780071171946 5.509856330023871 3.9881931899160414 C 4.6256752543979225 4.499763444691299 3.5837118360731335 4.666773067501857 2.5839383867051864 4.457169964447502 C 2.343693998124864 4.796066459592941 2.135822150442335 5.156786070114466 1.9630629221598306 5.534572318746626 C 2.6441754764980736 6.295359878179529 3.0204466430780785 7.280817959467759 3.0197132958306203 8.301950454711914 C 3.019713295830619 9.347810454045957 2.629591147104899 10.32477585340217 1.9630629221598306 11.069328590677202 C 2.1369338962766857 11.446877347907561 2.3453323576185436 11.807545777906133 2.585598627726237 12.146730521121064 C 3.5847409566243487 11.937302139153221 4.626027901967366 12.104002201921867 5.509856330023871 12.614876963193177 Z M 8 10.792093340544538 C 7.3395730124579535 10.792093340544538 6.706194241841634 10.529740178499294 6.2392018636067705 10.062747788343305 C 5.772209485371907 9.595755398187316 5.509856330023871 8.96237740613107 5.509856330023871 8.301950454711914 C 5.509856330023871 7.641523503292758 5.772209485371907 7.008145935091773 6.2392018636067705 6.541153544935785 C 6.706194241841634 6.074161154779797 7.3395730124579535 5.811807568879293 8 5.811807568879291 C 8.660426987542046 5.811807568879291 9.293804910447863 6.074161154779797 9.760797288682726 6.541153544935785 C 10.22778966691759 7.008145935091773 10.490142822265625 7.641523503292758 10.490142822265625 8.301950454711914 C 10.490142822265625 8.96237740613107 10.22778966691759 9.595755398187316 9.760797288682726 10.062747788343305 C 9.293804910447863 10.529740178499294 8.660426987542046 10.792093340544538 8 10.792093340544538 Z M 8 9.131998083322788 C 8.220142338011 9.131998083322788 8.431266890631782 9.044546450921882 8.58693101671007 8.888882334115362 C 8.742595142788357 8.733218217308842 8.830047607421875 8.52209278509711 8.830047607421875 8.301950454711914 C 8.830047607421875 8.081808124326718 8.742595142788357 7.87068184440446 8.58693101671007 7.7150177275979415 C 8.431266890631782 7.5593536107914225 8.220142338011 7.471902826101039 8 7.471902826101039 C 7.779857661989 7.471902826101039 7.568730566236708 7.5593536107914225 7.41306644015842 7.7150177275979415 C 7.257402314080132 7.87068184440446 7.169952392578125 8.081808124326718 7.169952392578125 8.301950454711914 C 7.169952392578125 8.52209278509711 7.257402314080132 8.733218217308842 7.41306644015842 8.888882334115362 C 7.568730566236708 9.044546450921882 7.779857661989 9.131998083322788 8 9.131998083322788 Z" fill="rgb(255,255,255)"/>
        </svg>